<?xml version="1.0" encoding="UTF-8"?>
<svg version="1.1" xmlns="http://www.w3.org/2000/svg" width="361" height="341">
<path d="M0 0 C119.13 0 238.26 0 361 0 C361 112.53 361 225.06 361 341 C241.87 341 122.74 341 0 341 C0 228.47 0 115.94 0 0 Z " fill="#FEFEFE" transform="translate(0,0)"/>
<path d="M0 0 C1.03769531 -0.02578125 2.07539063 -0.0515625 3.14453125 -0.078125 C7.35071273 0.37542987 9.89779773 2.09371521 13 4.875 C14.32852977 7.53205953 14.31175407 8.96478745 14.26171875 11.8984375 C14.24564575 13.11926025 14.24564575 13.11926025 14.22924805 14.36474609 C14.21547119 14.98687988 14.20169434 15.60901367 14.1875 16.25 C15.13439697 16.23889694 16.08129395 16.22779388 17.05688477 16.21635437 C26.00170099 16.11478193 34.94639947 16.03994077 43.8916626 15.99093914 C48.49003222 15.96489932 53.08793447 15.92960479 57.68603516 15.87280273 C62.12755902 15.81828134 66.56863472 15.78853726 71.01046753 15.77561378 C72.7009079 15.76640985 74.39132508 15.74843654 76.08157349 15.72134972 C86.43905816 15.56204198 93.11430349 15.8330428 101.17578125 23.0234375 C101.61277344 23.55195312 102.04976562 24.08046875 102.5 24.625 C103.17482422 25.41003906 103.17482422 25.41003906 103.86328125 26.2109375 C108.22774358 32.93143702 108.58451555 38.32798087 108.375 46.1875 C108.36146484 47.15751953 108.34792969 48.12753906 108.33398438 49.12695312 C108.29888677 51.50189129 108.24972275 53.87564378 108.1875 56.25 C108.950625 56.38277344 109.71375 56.51554687 110.5 56.65234375 C115.86081361 57.84450143 119.08761698 60.7429404 122 65.25 C125.22671534 70.59653157 125.35734534 75.52113144 125.390625 81.671875 C125.39632507 82.49069153 125.40202515 83.30950806 125.40789795 84.15313721 C125.41733085 85.88463049 125.42387513 87.61614158 125.42773438 89.34765625 C125.4374149 91.97688738 125.46844355 94.60532798 125.5 97.234375 C125.50653338 98.92187039 125.51178253 100.60937134 125.515625 102.296875 C125.5341452 103.46292267 125.5341452 103.46292267 125.55303955 104.65252686 C125.52125269 112.56745547 123.19413412 118.89097694 117.80859375 124.7734375 C115.03631135 127.29855255 112.00338869 129.25 108.1875 129.25 C108.27451172 131.13332031 108.27451172 131.13332031 108.36328125 133.0546875 C108.71217587 143.70448296 108.89462519 152.12864799 101.25 160.328125 C95.44619506 165.73621597 90.88562565 167.49803537 82.88249207 167.51069641 C82.15699215 167.51452196 81.43149223 167.51834751 80.68400747 167.52228898 C78.25825828 167.53258973 75.83274709 167.52863241 73.40698242 167.5246582 C71.66555055 167.52900636 69.9241206 167.53418986 68.18269348 167.54014587 C63.45530889 167.55353757 58.72800425 167.55411423 54.00060439 167.55158257 C50.05191445 167.55051274 46.10324067 167.55539668 42.15455419 167.560188 C32.83634088 167.57128429 23.51816789 167.57172023 14.19995117 167.56567383 C4.59387121 167.55963633 -5.0120622 167.5719391 -14.61811715 167.5932439 C-22.87051349 167.61087209 -31.12286323 167.61685924 -39.3752777 167.61360615 C-44.30176285 167.61179472 -49.22814351 167.61441536 -54.15461159 167.62832069 C-58.78970102 167.6409138 -63.4245625 167.63894088 -68.05964851 167.62590981 C-69.75754117 167.62354751 -71.45544995 167.62626625 -73.15332413 167.63453293 C-75.47799214 167.64503208 -77.80189978 167.63687494 -80.12654114 167.6242218 C-81.42530591 167.62438954 -82.72407068 167.62455729 -84.06219196 167.62473011 C-90.9125224 166.94024631 -97.20739189 164.55758223 -101.8125 159.25 C-108.56582942 150.63494193 -107.73514536 139.67012502 -107.8125 129.25 C-108.62001709 128.87669556 -108.62001709 128.87669556 -109.44384766 128.49584961 C-116.56657153 125.09244806 -116.56657153 125.09244806 -119.1875 121.8125 C-119.64898437 121.25691406 -120.11046875 120.70132813 -120.5859375 120.12890625 C-124.07955347 114.77722065 -124.14618609 109.84263128 -124.18359375 103.63671875 C-124.19262222 102.70833694 -124.2016507 101.77995514 -124.21095276 100.82344055 C-124.22543243 98.86255099 -124.23433631 96.90161336 -124.23803711 94.94067383 C-124.2499197 91.95765743 -124.29911563 88.97672006 -124.34960938 85.99414062 C-124.35907626 84.08334336 -124.36631002 82.17253347 -124.37109375 80.26171875 C-124.40039223 78.93632332 -124.40039223 78.93632332 -124.43028259 77.58415222 C-124.37720037 70.21144009 -121.91167483 65.34340355 -116.71484375 60.15625 C-116.06644531 59.6921875 -115.41804688 59.228125 -114.75 58.75 C-113.77353516 58.02296875 -113.77353516 58.02296875 -112.77734375 57.28125 C-110.8125 56.25 -110.8125 56.25 -106.8125 56.25 C-106.85963135 55.28344482 -106.85963135 55.28344482 -106.90771484 54.29736328 C-107.86666594 31.69929637 -107.86666594 31.69929637 -102.73046875 25.0625 C-95.70134141 18.41990309 -90.15122763 16.15879438 -80.56542969 16.04467773 C-79.84308136 16.03477814 -79.12073303 16.02487854 -78.37649536 16.01467896 C-75.99582158 15.98316516 -73.61512787 15.9583467 -71.234375 15.93359375 C-69.58098846 15.91301547 -67.92760709 15.89201877 -66.27423096 15.87062073 C-61.92761417 15.81549026 -57.58095062 15.76604127 -53.23425293 15.71777344 C-48.7967514 15.66749243 -44.35931758 15.61184084 -39.921875 15.55664062 C-31.2188073 15.44916947 -22.51568285 15.34770009 -13.8125 15.25 C-13.76859131 14.63511719 -13.72468262 14.02023438 -13.67944336 13.38671875 C-13.57321655 12.17435547 -13.57321655 12.17435547 -13.46484375 10.9375 C-13.40031006 10.13699219 -13.33577637 9.33648437 -13.26928711 8.51171875 C-12.55962509 4.99792455 -10.5608961 3.39508964 -7.8125 1.25 C-5.13594199 -0.08827901 -2.98815948 0.04421444 0 0 Z " fill="#FEFDFE" transform="translate(178.8125,97.75)"/>
<path d="M0 0 C1.03769531 -0.02578125 2.07539063 -0.0515625 3.14453125 -0.078125 C7.35071273 0.37542987 9.89779773 2.09371521 13 4.875 C14.32852977 7.53205953 14.31175407 8.96478745 14.26171875 11.8984375 C14.24564575 13.11926025 14.24564575 13.11926025 14.22924805 14.36474609 C14.21547119 14.98687988 14.20169434 15.60901367 14.1875 16.25 C15.13439697 16.23889694 16.08129395 16.22779388 17.05688477 16.21635437 C26.00170099 16.11478193 34.94639947 16.03994077 43.8916626 15.99093914 C48.49003222 15.96489932 53.08793447 15.92960479 57.68603516 15.87280273 C62.12755902 15.81828134 66.56863472 15.78853726 71.01046753 15.77561378 C72.7009079 15.76640985 74.39132508 15.74843654 76.08157349 15.72134972 C86.43905816 15.56204198 93.11430349 15.8330428 101.17578125 23.0234375 C101.61277344 23.55195312 102.04976562 24.08046875 102.5 24.625 C103.17482422 25.41003906 103.17482422 25.41003906 103.86328125 26.2109375 C108.22774358 32.93143702 108.58451555 38.32798087 108.375 46.1875 C108.36146484 47.15751953 108.34792969 48.12753906 108.33398438 49.12695312 C108.29888677 51.50189129 108.24972275 53.87564378 108.1875 56.25 C108.950625 56.38277344 109.71375 56.51554687 110.5 56.65234375 C115.86081361 57.84450143 119.08761698 60.7429404 122 65.25 C125.22671534 70.59653157 125.35734534 75.52113144 125.390625 81.671875 C125.39632507 82.49069153 125.40202515 83.30950806 125.40789795 84.15313721 C125.41733085 85.88463049 125.42387513 87.61614158 125.42773438 89.34765625 C125.4374149 91.97688738 125.46844355 94.60532798 125.5 97.234375 C125.50653338 98.92187039 125.51178253 100.60937134 125.515625 102.296875 C125.5341452 103.46292267 125.5341452 103.46292267 125.55303955 104.65252686 C125.52125269 112.56745547 123.19413412 118.89097694 117.80859375 124.7734375 C115.03631135 127.29855255 112.00338869 129.25 108.1875 129.25 C108.27451172 131.13332031 108.27451172 131.13332031 108.36328125 133.0546875 C108.71217587 143.70448296 108.89462519 152.12864799 101.25 160.328125 C95.44619506 165.73621597 90.88562565 167.49803537 82.88249207 167.51069641 C82.15699215 167.51452196 81.43149223 167.51834751 80.68400747 167.52228898 C78.25825828 167.53258973 75.83274709 167.52863241 73.40698242 167.5246582 C71.66555055 167.52900636 69.9241206 167.53418986 68.18269348 167.54014587 C63.45530889 167.55353757 58.72800425 167.55411423 54.00060439 167.55158257 C50.05191445 167.55051274 46.10324067 167.55539668 42.15455419 167.560188 C32.83634088 167.57128429 23.51816789 167.57172023 14.19995117 167.56567383 C4.59387121 167.55963633 -5.0120622 167.5719391 -14.61811715 167.5932439 C-22.87051349 167.61087209 -31.12286323 167.61685924 -39.3752777 167.61360615 C-44.30176285 167.61179472 -49.22814351 167.61441536 -54.15461159 167.62832069 C-58.78970102 167.6409138 -63.4245625 167.63894088 -68.05964851 167.62590981 C-69.75754117 167.62354751 -71.45544995 167.62626625 -73.15332413 167.63453293 C-75.47799214 167.64503208 -77.80189978 167.63687494 -80.12654114 167.6242218 C-81.42530591 167.62438954 -82.72407068 167.62455729 -84.06219196 167.62473011 C-90.9125224 166.94024631 -97.20739189 164.55758223 -101.8125 159.25 C-108.56582942 150.63494193 -107.73514536 139.67012502 -107.8125 129.25 C-108.62001709 128.87669556 -108.62001709 128.87669556 -109.44384766 128.49584961 C-116.56657153 125.09244806 -116.56657153 125.09244806 -119.1875 121.8125 C-119.64898437 121.25691406 -120.11046875 120.70132813 -120.5859375 120.12890625 C-124.07955347 114.77722065 -124.14618609 109.84263128 -124.18359375 103.63671875 C-124.19262222 102.70833694 -124.2016507 101.77995514 -124.21095276 100.82344055 C-124.22543243 98.86255099 -124.23433631 96.90161336 -124.23803711 94.94067383 C-124.2499197 91.95765743 -124.29911563 88.97672006 -124.34960938 85.99414062 C-124.35907626 84.08334336 -124.36631002 82.17253347 -124.37109375 80.26171875 C-124.40039223 78.93632332 -124.40039223 78.93632332 -124.43028259 77.58415222 C-124.37720037 70.21144009 -121.91167483 65.34340355 -116.71484375 60.15625 C-116.06644531 59.6921875 -115.41804688 59.228125 -114.75 58.75 C-113.77353516 58.02296875 -113.77353516 58.02296875 -112.77734375 57.28125 C-110.8125 56.25 -110.8125 56.25 -106.8125 56.25 C-106.85963135 55.28344482 -106.85963135 55.28344482 -106.90771484 54.29736328 C-107.86666594 31.69929637 -107.86666594 31.69929637 -102.73046875 25.0625 C-95.70134141 18.41990309 -90.15122763 16.15879438 -80.56542969 16.04467773 C-79.84308136 16.03477814 -79.12073303 16.02487854 -78.37649536 16.01467896 C-75.99582158 15.98316516 -73.61512787 15.9583467 -71.234375 15.93359375 C-69.58098846 15.91301547 -67.92760709 15.89201877 -66.27423096 15.87062073 C-61.92761417 15.81549026 -57.58095062 15.76604127 -53.23425293 15.71777344 C-48.7967514 15.66749243 -44.35931758 15.61184084 -39.921875 15.55664062 C-31.2188073 15.44916947 -22.51568285 15.34770009 -13.8125 15.25 C-13.76859131 14.63511719 -13.72468262 14.02023438 -13.67944336 13.38671875 C-13.57321655 12.17435547 -13.57321655 12.17435547 -13.46484375 10.9375 C-13.40031006 10.13699219 -13.33577637 9.33648437 -13.26928711 8.51171875 C-12.55962509 4.99792455 -10.5608961 3.39508964 -7.8125 1.25 C-5.13594199 -0.08827901 -2.98815948 0.04421444 0 0 Z M-90.8125 37.25 C-91.25198867 40.10601476 -91.40269987 42.34053457 -91.30078125 45.17578125 C-91.29370651 45.92337204 -91.28663177 46.67096283 -91.27934265 47.44120789 C-91.25147645 49.81601402 -91.18876132 52.18841351 -91.125 54.5625 C-91.09990668 56.17770018 -91.07709531 57.79293754 -91.05664062 59.40820312 C-91.00167647 63.35638819 -90.91546527 67.30278689 -90.8125 71.25 C-92.27623047 71.19779297 -92.27623047 71.19779297 -93.76953125 71.14453125 C-95.04183594 71.11746094 -96.31414062 71.09039062 -97.625 71.0625 C-98.88957031 71.02769531 -100.15414062 70.99289063 -101.45703125 70.95703125 C-104.67587129 71.0210427 -104.67587129 71.0210427 -106.73681641 72.2578125 C-108.46523318 75.45887489 -108.2391911 78.76463511 -108.2109375 82.3125 C-108.21380768 83.10019775 -108.21667786 83.88789551 -108.21963501 84.69946289 C-108.22167522 86.36377685 -108.21614832 88.02811481 -108.20361328 89.69238281 C-108.18755809 92.24077947 -108.20346244 94.78759021 -108.22265625 97.3359375 C-108.22067381 98.9531285 -108.21683011 100.57031852 -108.2109375 102.1875 C-108.21701019 102.95006104 -108.22308289 103.71262207 -108.2293396 104.49829102 C-108.19118447 107.36638683 -108.11592857 109.68804423 -106.73681641 112.2421875 C-103.71448028 113.82506031 -100.99817536 113.53033969 -97.625 113.4375 C-96.35269531 113.41042969 -95.08039063 113.38335937 -93.76953125 113.35546875 C-92.79371094 113.32066406 -91.81789063 113.28585938 -90.8125 113.25 C-90.82821045 114.19319092 -90.8439209 115.13638184 -90.86010742 116.1081543 C-90.91136007 119.62123148 -90.94890991 123.13390898 -90.97729492 126.6472168 C-90.99234353 128.16518438 -91.01278738 129.68310876 -91.03881836 131.20092773 C-91.07537653 133.38796677 -91.09226523 135.57442896 -91.10546875 137.76171875 C-91.1211792 139.07615967 -91.13688965 140.39060059 -91.15307617 141.74487305 C-90.79258778 145.45493176 -90.06254715 147.31683566 -87.8125 150.25 C-84.89577132 151.70836434 -82.3347163 151.38611852 -79.07585144 151.39717102 C-78.37529941 151.40084771 -77.67474739 151.4045244 -76.95296651 151.4083125 C-74.59388116 151.4193692 -72.23483983 151.42319652 -69.87573242 151.42700195 C-68.18898884 151.43326507 -66.50224665 151.43991174 -64.81550598 151.44691467 C-60.22453083 151.46433769 -55.6335661 151.47487983 -51.04256606 151.4831202 C-48.17575317 151.48826727 -45.30894354 151.49434312 -42.44213295 151.50063133 C-33.47681322 151.51968647 -24.51150174 151.53391729 -15.54616565 151.5422433 C-5.18915647 151.55201994 5.16763922 151.57834922 15.52457315 151.61874419 C23.52462727 151.64887849 31.52462011 151.66370959 39.52472991 151.66702431 C44.30534336 151.66937775 49.08572882 151.67837621 53.86628151 151.70348549 C58.36346581 151.72672451 62.86027135 151.73101635 67.35750008 151.72072411 C69.0082856 151.72022763 70.65908951 151.72658105 72.30981827 151.74028015 C74.56363503 151.75793794 76.81608345 151.75092454 79.06990051 151.73774719 C80.96167133 151.74132972 80.96167133 151.74132972 82.89165974 151.74498463 C86.77881967 151.16119286 88.42073568 149.98653885 91.1875 147.25 C92.66655238 144.29189524 92.30940903 141.2952845 92.28515625 138.0546875 C92.2837413 137.34724396 92.28232635 136.63980042 92.28086853 135.91091919 C92.275266 133.64890331 92.26271318 131.38698602 92.25 129.125 C92.24498532 127.59244935 92.24042236 126.05989714 92.23632812 124.52734375 C92.22529577 120.76819112 92.20802952 117.00911228 92.1875 113.25 C93.16332031 113.29640625 94.13914062 113.3428125 95.14453125 113.390625 C96.41683594 113.42671875 97.68914062 113.4628125 99 113.5 C100.26457031 113.54640625 101.52914062 113.5928125 102.83203125 113.640625 C106.15480849 113.55395396 106.15480849 113.55395396 108.10961914 111.71484375 C109.5857823 108.33922806 109.63605351 105.1832241 109.62109375 101.5625 C109.6263356 100.82298096 109.63157745 100.08346191 109.63697815 99.3215332 C109.64338747 97.76156874 109.64207542 96.20155587 109.63354492 94.64160156 C109.62502711 92.25758769 109.65381892 89.87596523 109.68554688 87.4921875 C109.6871589 85.97395905 109.68658133 84.45572637 109.68359375 82.9375 C109.70044472 81.87172729 109.70044472 81.87172729 109.71763611 80.78442383 C109.67199806 77.53709178 109.36749397 75.5257122 107.57836914 72.78515625 C104.37670507 70.72939564 102.21029352 70.84908826 98.4375 71 C97.26703125 71.03609375 96.0965625 71.0721875 94.890625 71.109375 C93.99859375 71.15578125 93.1065625 71.2021875 92.1875 71.25 C92.20844727 70.27651611 92.22939453 69.30303223 92.25097656 68.30004883 C92.32358186 64.67536224 92.36937335 61.05073945 92.40722656 57.42553711 C92.42729558 55.85902077 92.45455751 54.29257891 92.48925781 52.72631836 C92.53798754 50.46970206 92.5605147 48.21407917 92.578125 45.95703125 C92.59877014 45.26100296 92.61941528 44.56497467 92.64068604 43.84785461 C92.64233032 40.25418065 92.26765358 38.37318719 90.28808594 35.33081055 C86.73004196 31.8062628 84.37285115 32.11786635 79.45085144 32.09609985 C78.75029941 32.0917176 78.04974739 32.08733535 77.32796651 32.0828203 C74.96888582 32.06941284 72.60984249 32.06324911 70.25073242 32.05712891 C68.56398855 32.04922952 66.87724637 32.04096067 65.19050598 32.03234863 C59.64134337 32.00611137 54.09217313 31.99082012 48.54296875 31.9765625 C46.63435676 31.97120368 44.72574483 31.96582617 42.81713295 31.96043015 C34.87951277 31.93879966 26.94189464 31.92006184 19.00425243 31.90880775 C7.61948742 31.89256135 -3.76493667 31.8593688 -15.14957315 31.80240691 C-23.1496255 31.76374066 -31.14958654 31.74417905 -39.14972991 31.73888719 C-43.93040191 31.7352294 -48.71071045 31.72316289 -53.49128151 31.69078445 C-57.98852294 31.66076176 -62.48517988 31.6543711 -66.98250008 31.66616821 C-68.63329494 31.66638943 -70.28411647 31.65804451 -71.93481827 31.64051437 C-74.18888555 31.61787918 -76.44082316 31.62608849 -78.69490051 31.64199829 C-79.95608106 31.63868814 -81.2172616 31.635378 -82.51665974 31.63196754 C-86.73032116 32.42210885 -88.21288588 33.90192366 -90.8125 37.25 Z " fill="#C9226E" transform="translate(178.8125,97.75)"/>
<path d="M0 0 C5.91402454 4.7622295 10.30526523 10.94370585 11.7734375 18.4921875 C12.65099038 27.16646021 10.78930085 35.04168858 5.8359375 42.2421875 C0.53962755 48.45431771 -6.08204388 52.18107329 -14.2421875 53.03125 C-23.54221631 53.5616201 -29.9733262 51.82085421 -37.1796875 45.8828125 C-42.66425819 40.8591301 -45.88891172 36.21018304 -46.5703125 28.70703125 C-46.96383766 17.95950587 -45.71421034 10.35824398 -38.26171875 2.3203125 C-27.15368756 -7.65772703 -12.29045919 -8.32301271 0 0 Z " fill="#C21F72" transform="translate(240.2265625,168.5078125)"/>
<path d="M0 0 C5.81146029 3.90695551 9.27320931 8.91575588 11.44140625 15.57421875 C12.96636275 23.84824015 12.8001984 32.10013025 8.51953125 39.4609375 C3.78078617 45.80491874 -1.68050498 50.08101002 -9.1640625 52.71484375 C-11.91646863 53.02066665 -14.36334 53.19365809 -17.1015625 53.15234375 C-17.80595459 53.14477051 -18.51034668 53.13719727 -19.23608398 53.12939453 C-24.81790609 52.95223488 -28.7198236 52.05323917 -33.1640625 48.71484375 C-34.08058594 48.09609375 -34.08058594 48.09609375 -35.015625 47.46484375 C-41.00508894 42.97911757 -43.84053154 36.68543663 -46.1640625 29.71484375 C-47.10293423 19.46421144 -45.36088112 12.3630645 -38.8515625 4.40234375 C-27.82904623 -7.4192462 -13.23246451 -7.85826863 0 0 Z " fill="#E33466" transform="translate(152.1640625,168.28515625)"/>
<path d="M0 0 C3.5625 -0.25 3.5625 -0.25 7 0 C8 1 8 1 8.11352539 2.85766602 C8.10828857 3.64842529 8.10305176 4.43918457 8.09765625 5.25390625 C8.09443359 6.10791016 8.09121094 6.96191406 8.08789062 7.84179688 C8.07532227 9.18854492 8.07532227 9.18854492 8.0625 10.5625 C8.05798828 11.46419922 8.05347656 12.36589844 8.04882812 13.29492188 C8.03700225 15.53001314 8.0205222 17.76497437 8 20 C8.92941406 19.50628906 9.85882813 19.01257813 10.81640625 18.50390625 C12.06482415 17.8562308 13.31353805 17.20912569 14.5625 16.5625 C15.17158203 16.23701172 15.78066406 15.91152344 16.40820312 15.57617188 C20.65560614 13.39628779 24.24162667 12.43480631 29 12 C29.875 15.1875 29.875 15.1875 30 19 C25.24908474 24.72904487 17.69097272 27.11116756 11 30 C12.29154397 33.87463191 14.67809047 35.231467 17.875 37.5 C25.23248799 42.79529421 25.23248799 42.79529421 27 45 C26.75546876 48.34192692 26.39456443 49.60543557 24 52 C19.30193996 51.80559752 16.72934368 49.47154758 13.25 46.5 C12.28578125 45.6853125 11.3215625 44.870625 10.328125 44.03125 C8 42 8 42 7 41 C5.57003574 45.28989278 5.61455684 49.56898963 5.37890625 54.06640625 C5 57 5 57 3 59 C-2.25657451 59.55921005 -2.25657451 59.55921005 -4.68676758 57.73120117 C-6.31592788 55.58352025 -6.29372859 54.64235474 -6.07421875 51.98828125 C-6.01943359 51.23095703 -5.96464844 50.47363281 -5.90820312 49.69335938 C-5.83537109 48.90767578 -5.76253906 48.12199219 -5.6875 47.3125 C-5.5956543 46.11657227 -5.5956543 46.11657227 -5.50195312 44.89648438 C-5.34886031 42.92983047 -5.17629291 40.96471011 -5 39 C-5.86882812 39.5053125 -6.73765625 40.010625 -7.6328125 40.53125 C-8.79649759 41.188169 -9.96058155 41.84438179 -11.125 42.5 C-12.83042969 43.47453125 -12.83042969 43.47453125 -14.5703125 44.46875 C-18.1000687 46.0446776 -20.19179375 46.44281468 -24 46 C-25.875 44.5 -25.875 44.5 -27 43 C-25.67763993 39.0329198 -23.23468621 37.97119169 -19.8125 35.9375 C-19.24724609 35.58623047 -18.68199219 35.23496094 -18.09960938 34.87304688 C-14.51127372 32.69867166 -11.02186906 31.17787667 -7 30 C-10.58842971 26.30504919 -14.33171871 22.95241783 -18.3125 19.6875 C-19.13717773 19.0059082 -19.13717773 19.0059082 -19.97851562 18.31054688 C-21.31712216 17.20474148 -22.65829231 16.10204061 -24 15 C-23.6875 12.625 -23.6875 12.625 -23 10 C-20 8 -20 8 -17.63671875 8.09375 C-14.24954066 9.25793565 -12.39338203 11.0323488 -9.8125 13.5 C-6.6654128 16.61845094 -6.6654128 16.61845094 -3 19 C-2.95101562 17.87980469 -2.90203125 16.75960937 -2.8515625 15.60546875 C-2.77652144 14.13278797 -2.70097418 12.66013293 -2.625 11.1875 C-2.57859375 10.08051758 -2.57859375 10.08051758 -2.53125 8.95117188 C-2.32653852 5.18106885 -2.13566173 3.20349259 0 0 Z " fill="#CB2671" transform="translate(178,35)"/>
<path d="M0 0 C4.14120292 1.84053463 6.1983357 3.82772478 8 8 C8.57256111 13.24847685 7.75188036 16.51545423 5 21 C2.95943261 23.4656856 2.13026076 23.95657975 -1 25 C-5.73039335 25.38773716 -8.05546399 25.48117872 -12.3125 23.3125 C-16.21936658 19.95077759 -17.78190853 17.71357583 -18.4375 12.5625 C-17.75484582 7.00374452 -15.36738761 4.21200265 -11.25 0.5625 C-7.06376786 -1.4501116 -4.3919665 -1.26132922 0 0 Z " fill="#FEF9FB" transform="translate(140,180)"/>
<path d="M0 0 C3.45658479 2.04573386 4.7785359 3.66780385 7 7 C7.58760427 11.50242236 7.50290275 15.68686505 5.875 19.9375 C2.39716399 23.76311961 -0.87512465 24.83930352 -5.9375 25.5625 C-10.27872324 25.42057539 -12.57978499 23.40539639 -15.65234375 20.5078125 C-18.64931197 17.15468284 -18.32638821 13.79158871 -18.2890625 9.48046875 C-17.88350874 6.00037908 -16.55189308 4.33315939 -14 2 C-9.54806278 -0.96795815 -5.22190854 -0.63458039 0 0 Z " fill="#FEFBFC" transform="translate(228,180)"/>
</svg>
